<svg xmlns="http://www.w3.org/2000/svg" width="158.5" height="158.5" viewBox="0 0 158.5 158.5">
    <g fill="#E95F33">
        <path d="M74.7 101.2H59.8l-11.4 11.1V51.1h26.3zM155.1 86.1h-13.9l-11.4 11.1V36h12.3l10 19.3 4 19.4zM51.5 37H36.7L25.3 48.1V25.5L51.5 8.2zM97.4 152.8l-13.1 3.3-13.1-1.5v-39.3h26.2z"/>
    </g>
    <path fill="#323838" d="M71.7 48.1H45.4v71.4L61 104.2H117.8V48.1H71.7zm40.2 47.7L96.1 76.1l15.8-19.7v39.4zM77.7 56.5l15.8 19.7-15.8 19.6V56.5zm.7 41.7l16.4-20.4 16.4 20.4H78.4zm16.4-23.7L78.4 54.1h32.8L94.8 74.5zM51.5 54.1h20.2v21.1H51.5V54.1zm20.2 44.1H58.6l-7.1 7v-28h20.2v21zM132.9 62.1h17.6c1.3 5.5 2 11.2 2 17.1 0 1.3 0 2.5-.1 3.8H140l-7.1 7V62.1zm17.1-2h-17.1V39h7.6c4.2 6.4 7.4 13.5 9.5 21.1zM55.3 33.9l16.4-20.4L88 33.9H55.3zM79.3 6c3.2 0 6.4.2 9.5.6v25L72.9 11.9 77.6 6h1.7zm-4.3.1l-3.4 4.2-2.9-3.6 6.3-.6zm-8.5 1l3.8 4.8-15.7 19.7V10.3c3.8-1.4 7.8-2.4 11.9-3.2zM48.1 13h.5v20.9H35.4l-7.1 7V26.7c5.8-5.6 12.4-10.2 19.8-13.7zm-17.4 97.9L14.9 91.2l15.8-19.7v39.4zM6 79.3c0-3.4.3-6.8.7-10H30L13.6 89.6 6 80.2v-.9zm.1 4.3l6.1 7.7L8 96.6c-.9-4.3-1.6-8.6-1.9-13zm2.6 15.3l4.9-6.1L30 113.3H14.4c-2.4-4.6-4.3-9.4-5.7-14.4zm125.2 19.4l-16.4 20.4-16.4-20.4h32.8zm-39.5 21.1H74.2v-21.1h20.2v21.1zm-15.1 13.1c-1.7 0-3.4-.1-5.1-.2v-10.9h20.2v9.5c-4.9 1.1-9.9 1.6-15.1 1.6zm21.2-3.1v-28.7l15.8 19.7-3.1 3.9c-4.1 2-8.3 3.7-12.7 5.1zm18.6-8.7l-.3-.4 15.8-19.7v6.5c-4.5 5.3-9.7 9.8-15.5 13.6zm21.6-21.5v-6.9H68.2v39.4c-21-3.2-39-15.3-50.2-32.4h18.7V63.2H7.8c2.5-11.1 7.5-21.3 14.5-29.9v22L37.9 40H94.7V7.7c16.5 3.6 30.9 12.7 41.3 25.3h-9.2v71.4l15.6-15.3h9.4c-1.4 11-5.3 21.2-11.1 30.1zM79.3 0C35.6 0 0 35.6 0 79.3s35.6 79.3 79.3 79.3c43.7 0 79.3-35.6 79.3-79.3S123 0 79.3 0z"/>
</svg>
