<svg xmlns="http://www.w3.org/2000/svg" width="120" height="120" viewBox="0 0 120 120">
    <path fill="#e95f33" d="M60 116.8C28.7 116.8 3.2 91.3 3.2 60S28.7 3.2 60 3.2c31.3 0 56.8 25.5 56.8 56.8S91.3 116.8 60 116.8zm47.9-49c-1.7-.5-15-4.5-30.2-2.1 6.3 17.4 8.9 31.6 9.4 34.6 10.9-7.4 18.6-19 20.8-32.5zm-29 36.9c-.7-4.3-3.5-19.1-10.3-36.8-.1 0-.2.1-.3.1-27.4 9.5-37.2 28.5-38 30.3 8.2 6.4 18.6 10.2 29.8 10.2 6.6.1 13-1.3 18.8-3.8zM24 92.5c1.1-1.9 14.4-23.9 39.4-32 .6-.2 1.3-.4 1.9-.6-1.2-2.8-2.5-5.5-3.9-8.2-24.2 7.2-47.7 6.9-49.8 6.9v1.5c-.1 12.4 4.6 23.8 12.4 32.4zM12.5 50.1c2.2 0 22.1.1 44.8-5.9-8-14.3-16.7-26.3-18-28-13.5 6.4-23.6 18.9-26.8 33.9zm36.1-37.2c1.3 1.8 10.1 13.8 18.1 28.4C84 34.9 91.3 25 92.1 23.8 83.6 16.2 72.3 11.6 60 11.6c-3.9 0-7.7.5-11.4 1.3zm48.9 16.5c-1 1.4-9.1 11.8-27.1 19.1 1.1 2.3 2.2 4.7 3.2 7 .4.8.7 1.7 1 2.5 16.1-2 32.2 1.2 33.8 1.6 0-11.4-4.1-21.9-10.9-30.2z"/>
</svg>
