<svg xmlns="http://www.w3.org/2000/svg" width="120" height="120" viewBox="0 0 120 120">
    <path fill="#e95f33" d="M107.3 60c0-6.4-1.3-12.5-3.8-18.4-2.5-5.8-5.9-10.9-10.1-15.1-4.2-4.2-9.2-7.6-15.1-10.1-5.8-2.5-12-3.8-18.4-3.8-6.4 0-12.5 1.3-18.4 3.8-5.8 2.5-10.9 5.9-15.1 10.1s-7.4 9.3-9.9 15.1c-2.5 5.8-3.8 12-3.8 18.4 0 10.3 3.1 19.6 9.2 28 6.1 8.3 14.1 14 23.9 17.1V92.6c-2.7.3-4.4.5-5.1.5-5.4 0-9.2-2.5-11.3-7.4-.7-1.9-1.6-3.4-2.7-4.7-.2-.3-.8-.8-1.6-1.4-.8-.6-1.5-1.2-2.1-1.8-.6-.5-.9-.9-.9-1.2 0-.6.7-.9 2.1-.9 1.4 0 2.7.4 3.8 1.1 1.1.7 2 1.6 2.8 2.6.8 1 1.5 2 2.3 3.1.8 1 1.8 1.9 3 2.6 1.2.7 2.6 1.1 4.2 1.1 2.1 0 4.1-.3 6-1 .8-2.8 2.3-5 4.7-6.6-8.2-.8-14.2-2.8-18.2-6.2-3.9-3.3-5.9-8.9-5.9-16.6 0-5.8 1.8-10.7 5.4-14.6-.7-2.1-1-4.1-1-6.2 0-2.9.7-5.5 2-8.1 2.8 0 5.3.5 7.5 1.4 2.2 1 4.7 2.5 7.5 4.5 3.7-.9 7.9-1.3 12.5-1.3 3.9 0 7.7.4 11.3 1.2 2.8-2 5.3-3.4 7.4-4.4 2.1-.9 4.6-1.4 7.4-1.4 1.3 2.5 2 5.2 2 8.1 0 2.1-.3 4.2-1 6.1 3.6 4 5.4 8.9 5.4 14.7 0 7.7-2 13.3-5.9 16.7-3.9 3.4-10 5.4-18.1 6.2 3.4 2.3 5.1 5.5 5.1 9.7v16.7C84 102 92 96.3 98.1 88c6.1-8.4 9.2-17.7 9.2-28zm9.5 0c0 10.3-2.5 19.8-7.6 28.5s-12 15.6-20.7 20.7-18.2 7.6-28.5 7.6-19.8-2.5-28.5-7.6-15.6-12-20.7-20.7c-5-8.7-7.6-18.2-7.6-28.5s2.5-19.8 7.6-28.5 12-15.6 20.7-20.7c8.7-5 18.2-7.6 28.5-7.6s19.8 2.5 28.5 7.6 15.6 12 20.7 20.7c5 8.7 7.6 18.2 7.6 28.5z"/>
</svg>
