<svg xmlns="http://www.w3.org/2000/svg" width="120" height="120" viewBox="0 0 120 120">
    <path fill="#e95f33" d="M94.3 60C94.3 79 79 94.3 60 94.3 41 94.3 25.7 79 25.7 60c0-2.3.2-4.5.6-6.6H3.2V99c0 9.8 7.9 17.7 17.7 17.7H99c9.8 0 17.7-7.9 17.7-17.7V53.4h-23c.4 2.1.6 4.3.6 6.6zM99 3.2H21c-9.8 0-17.8 8-17.8 17.8v19.2H32c6.2-8.8 16.4-14.5 28-14.5 11.6 0 21.8 5.7 28 14.5h28.7V21c.1-9.8-7.9-17.8-17.7-17.8zm8.7 21.9c0 1.7-1.4 3.2-3.2 3.2H95c-1.7 0-3.2-1.4-3.2-3.2v-9.5c0-1.7 1.4-3.2 3.2-3.2h9.5c1.7 0 3.2 1.4 3.2 3.2v9.5zM81.1 60c0-11.7-9.5-21.1-21.1-21.1-11.7 0-21.1 9.5-21.1 21.1S48.3 81.1 60 81.1c11.7 0 21.1-9.4 21.1-21.1z"/>
</svg>
