<svg xmlns="http://www.w3.org/2000/svg" width="120" height="120" viewBox="0 0 120 120">
    <path fill="#e95f33" d="M116.8 24.8c-4.2 1.9-8.7 3.1-13.4 3.7 4.8-2.9 8.5-7.4 10.2-12.9-4.5 2.7-9.5 4.6-14.8 5.7-4.2-4.5-10.3-7.4-17-7.4-12.9 0-23.3 10.4-23.3 23.3 0 1.8.2 3.6.6 5.3-19.4-1-36.5-10.2-48-24.3-2 3.4-3.1 7.4-3.1 11.6 0 8.1 4.1 15.2 10.4 19.4-3.8-.1-7.4-1.2-10.5-2.9v.3c0 11.3 8 20.7 18.7 22.8-2 .5-4 .8-6.1.8-1.5 0-3-.1-4.4-.4 3 9.3 11.6 16 21.8 16.2-8 6.2-18 10-28.9 10-1.9 0-3.7-.1-5.6-.3 10.3 6.6 22.6 10.5 35.7 10.5 42.8 0 66.3-35.5 66.3-66.3 0-1 0-2-.1-3 4.4-3.3 8.3-7.4 11.5-12.1z"/>
</svg>
