<?xml version="1.0" encoding="utf-8"?>
<!-- Generator: Adobe Illustrator 18.1.1, SVG Export Plug-In . SVG Version: 6.00 Build 0)  -->
<svg version="1.1" id="Layer_1" xmlns="http://www.w3.org/2000/svg" xmlns:xlink="http://www.w3.org/1999/xlink" x="0px" y="0px"
	 width="158.5px" height="158.5px" viewBox="0 0 158.5 158.5" enable-background="new 0 0 158.5 158.5" xml:space="preserve">
<g>
	<polygon fill="#E95F33" points="144.6,41.1 117.1,41.1 117.1,13.6 133.3,25.4 	"/>
	<polygon fill="#E95F33" points="6.3,58.5 41.8,58.5 41.8,100.1 6.3,100.1 3,79.3 	"/>
	<rect x="58.5" y="58.5" fill="#E95F33" width="41.6" height="41.6"/>
	<path fill="#323838" d="M79.3,0C35.6,0,0,35.6,0,79.3s35.6,79.3,79.3,79.3c43.7,0,79.3-35.6,79.3-79.3S123,0,79.3,0z M152.5,79.3
		c0,6.1-0.8,12.1-2.2,17.8h-11.1v-7h9.8V68.5h-21.6v21.6h9.8v7h-17.5V61.5h30.6C151.8,67.2,152.5,73.1,152.5,79.3z M139.2,103.1h9.3
		c-1.3,3.9-3,7.7-5,11.3c-1.4-0.3-2.9-0.5-4.4-0.6V103.1z M129.4,88.1V70.5H147v17.6H129.4z M113.7,55.5v47.6h23.5v10.7
		c-12.3,0.5-22.3,10.4-22.8,22.8h-11.4v-22.8H55.5v34.9c-3.7-1.3-7.2-2.8-10.6-4.6v-30.2H21.3v-10.6h23.5V80.3h10.6v22.8h47.6V55.5
		H80.3V44.8h22.8V10c3.7,1.3,7.2,2.8,10.6,4.6v30.2h30.2c1.8,3.4,3.4,6.9,4.6,10.6H113.7z M114.5,138.5c0.1,1.6,0.3,3.1,0.6,4.6
		c-3.8,2.2-7.9,4-12.1,5.4v-10.1H114.5z M10,103.1h9.3v10.6h-4.7C12.8,110.3,11.3,106.7,10,103.1z M61.5,78.3V61.5h16.8h2h16.8v35.6
		H61.5V80.3V78.3z M140.3,38.8h-20.6V18.2C127.9,23.6,134.9,30.7,140.3,38.8z M97.1,8.2v30.6H61.5V8.2C67.2,6.8,73.1,6,79.3,6
		C85.4,6,91.4,6.8,97.1,8.2z M55.5,10v34.9h22.8v10.6H55.5v22.8H44.8V55.5H10C17.3,34.2,34.2,17.3,55.5,10z M8.2,61.5h30.6v16.8v2
		v16.8H21.3h-2H8.2C6.8,91.4,6,85.4,6,79.3S6.8,67.2,8.2,61.5z M18.2,119.7h20.6v20.6C30.7,134.9,23.6,127.9,18.2,119.7z
		 M61.5,150.3v-30.6h35.6v16.8h-7v-9.8H68.5v21.6h21.6v-9.8h7v11.9c-5.7,1.4-11.7,2.2-17.8,2.2C73.1,152.5,67.2,151.8,61.5,150.3z
		 M88.1,128.7v17.6H70.5v-17.6H88.1z M120.6,139.7c-0.1-0.7-0.2-1.5-0.2-2.2c0-9.8,8-17.8,17.8-17.8c0.7,0,1.4,0.1,2,0.1
		C135,127.6,128.3,134.4,120.6,139.7z"/>
</g>
</svg>
