<svg xmlns="http://www.w3.org/2000/svg" width="158.5" height="158.5" viewBox="0 0 158.5 158.5">
    <path fill="#E95F33" d="M153.8 94.5H93.9V79.3h61.6l-1.7-12.5H81.3v55.5h60.2z"/>
    <circle fill="#E95F33" cx="53.1" cy="52.8" r="4.2"/>
    <circle fill="#E95F33" cx="64.9" cy="52.8" r="4.2"/>
    <circle fill="#E95F33" cx="76.7" cy="52.8" r="4.2"/>
    <g fill="#323838">
        <path d="M53.1 58c2.9 0 5.2-2.3 5.2-5.2s-2.3-5.2-5.2-5.2-5.2 2.3-5.2 5.2 2.3 5.2 5.2 5.2zm0-8.4c1.8 0 3.2 1.4 3.2 3.2S54.8 56 53.1 56s-3.2-1.4-3.2-3.2 1.4-3.2 3.2-3.2zM64.9 58c2.9 0 5.2-2.3 5.2-5.2s-2.3-5.2-5.2-5.2-5.2 2.3-5.2 5.2 2.4 5.2 5.2 5.2zm0-8.4c1.8 0 3.2 1.4 3.2 3.2S66.7 56 64.9 56s-3.2-1.4-3.2-3.2 1.5-3.2 3.2-3.2zM76.7 58c2.9 0 5.2-2.3 5.2-5.2s-2.3-5.2-5.2-5.2-5.2 2.3-5.2 5.2 2.4 5.2 5.2 5.2zm0-8.4c1.8 0 3.2 1.4 3.2 3.2S78.5 56 76.7 56s-3.2-1.4-3.2-3.2 1.5-3.2 3.2-3.2zM47.5 112.1h26v2h-26zM47.5 118.9h26v2h-26zM47.5 125.8h26v2h-26zM47.5 132.6h26v2h-26zM47.5 139.4h26v2h-26zM79.3 0C35.6 0 0 35.6 0 79.3s35.6 79.3 79.3 79.3 79.3-35.6 79.3-79.3S123 0 79.3 0zm71.8 93.5H94.9V80.3h57.6c-.1 4.5-.5 8.9-1.4 13.2zM92.9 78.3v17.2h57.8c-.4 1.9-.9 3.8-1.5 5.6H92.9v2h55.6c-.6 1.8-1.3 3.6-2.1 5.3H92.9v2h52.7c-1.4 3.1-3.1 6-5 8.8H84.3v-50h67.6c.4 2.9.6 6 .7 9H92.9zm-43.2 68c-2.3-1-4.5-2.2-6.7-3.4v-35.6h35.3v45.2c-8.3-.1-16.2-1.6-23.6-4.2h18.8v-2H49.7zm95.6-98.7h-58V58h62c.5 1.7 1 3.5 1.4 5.3H43V43h99.9c.8 1.5 1.7 3 2.4 4.6zm3.4 8.4H89.3v-6.4h56.9c.9 2.1 1.8 4.2 2.5 6.4zm-88 28.1l-16-14.8H77L60.7 84.1zm17.6-13.3v29.6L62.1 85.5l16.2-14.7zM59.2 85.5L43 100.2V70.4l16.2 15.1zm1.5 1.3l15.6 14.4H44.8l15.9-14.4zM6 79.3C6 38.9 38.9 6 79.3 6c24.6 0 46.5 12.2 59.8 31H37v102C18.2 125.7 6 103.9 6 79.3zm123.4 53.3H92.3v2h34.9c-2 1.7-4 3.3-6.2 4.8H92.3v2H118c-2.9 1.8-6 3.4-9.1 4.8H92.3v2h11.6c-6.2 2.2-12.8 3.6-19.6 4.1v-27.1h52c-2.2 2.7-4.5 5.1-6.9 7.4z"/>
    </g>
</svg>
